<svg width="97" height="96" xmlns="http://www.w3.org/2000/svg" xmlns:xlink="http://www.w3.org/1999/xlink" xml:space="preserve" overflow="hidden"><defs><clipPath id="clip0"><rect x="620" y="156" width="97" height="96"/></clipPath><clipPath id="clip1"><rect x="621" y="156" width="96" height="96"/></clipPath><clipPath id="clip2"><rect x="621" y="156" width="96" height="96"/></clipPath><clipPath id="clip3"><rect x="621" y="156" width="96" height="96"/></clipPath></defs><g clip-path="url(#clip0)" transform="translate(-620 -156)"><g clip-path="url(#clip1)"><g clip-path="url(#clip2)"><g clip-path="url(#clip3)"><path d="M693.44 217.929C692.763 212.554 692.377 207.146 692.282 201.729 692.282 197.313 692.482 193.149 692.776 189.429 693.778 176.997 684.511 166.106 672.079 165.104 671.783 165.08 671.487 165.062 671.19 165.05 670.475 165.01 669.75 165 669 165 668.25 165 667.52 165.01 666.8 165.04 654.338 165.551 644.649 176.068 645.16 188.53 645.172 188.826 645.19 189.122 645.214 189.417 645.506 193.151 645.708 197.306 645.708 201.717 645.618 207.134 645.232 212.542 644.55 217.917 643.022 230.849 652.266 242.572 665.199 244.1 665.801 244.172 666.406 244.219 667.012 244.244 667.656 244.264 668.32 244.273 668.995 244.273 669.67 244.273 670.324 244.264 670.978 244.244 683.987 243.719 694.108 232.747 693.583 219.737 693.558 219.133 693.511 218.53 693.44 217.929ZM686.34 234.807C682.48 239.354 676.877 242.056 670.916 242.245 670.282 242.264 669.648 242.273 668.994 242.273 668.34 242.273 667.694 242.264 667.079 242.245 661.116 242.058 655.511 239.357 651.65 234.809 647.7 230.211 645.847 224.174 646.535 218.152 647.232 212.701 647.623 207.216 647.707 201.721 647.707 197.691 647.539 193.5 647.207 189.26 646.292 177.929 654.736 168.002 666.067 167.088 666.339 167.066 666.611 167.049 666.883 167.038 667.5 167.013 668.193 167 669 167 669.858 167 670.5 167.015 671.118 167.049 682.475 167.519 691.301 177.107 690.831 188.465 690.82 188.734 690.804 189.003 690.782 189.271 690.45 193.497 690.282 197.689 690.282 201.731 690.372 207.225 690.763 212.709 691.454 218.16 692.142 224.179 690.289 230.212 686.341 234.807Z" stroke="#405E25" stroke-width="2" stroke-linecap="butt" stroke-linejoin="miter" stroke-miterlimit="4" stroke-opacity="1" fill="#405E25" fill-rule="nonzero" fill-opacity="1"/><path d="M670 180.1 670 172C670 171.448 669.552 171 669 171 668.448 171 668 171.448 668 172L668 180.1C665.674 180.578 664.003 182.625 664 185L664 195C664.003 197.375 665.674 199.422 668 199.9L668 216C668 216.552 668.448 217 669 217 669.552 217 670 216.552 670 216L670 199.9C672.326 199.422 673.997 197.375 674 195L674 185C673.997 182.625 672.326 180.578 670 180.1ZM672 195C672 196.657 670.657 198 669 198 667.343 198 666 196.657 666 195L666 185C666 183.343 667.343 182 669 182 670.657 182 672 183.343 672 185Z" stroke="#405E25" stroke-width="2" stroke-linecap="butt" stroke-linejoin="miter" stroke-miterlimit="4" stroke-opacity="1" fill="#405E25" fill-rule="nonzero" fill-opacity="1"/></g></g></g></g></svg>