<svg width="96" height="96" xmlns="http://www.w3.org/2000/svg" xmlns:xlink="http://www.w3.org/1999/xlink" xml:space="preserve" overflow="hidden"><defs><clipPath id="clip0"><rect x="592" y="312" width="96" height="96"/></clipPath></defs><g clip-path="url(#clip0)" transform="translate(-592 -312)"><path d="M626 323 626 372.5 621.9 354C621.3 351.3 618.6 349.6 615.9 350.2 613.2 350.8 611.5 353.5 612.1 356.2L618.1 383.2C618.4 384.2 619 385.2 620 386L631 394.5 631 402 660 402 660 397C660 389.9 668 389.4 668 376 668 372.8 668 362.2 668 358 668 354.7 665.3 352 662 352 660.4 352 659 352.6 658 353.6 658 353.4 658 353.2 658 353 658 349.7 655.3 347 652 347 650.4 347 648.9 347.6 647.8 348.7 647.2 346 644.8 344 642 344 638.7 344 636 346.7 636 350L636 323C636 320.2 633.8 318 631 318 628.2 318 626 320.2 626 323Z" fill="#9ACB34" fill-rule="nonzero" fill-opacity="1"/></g></svg>